<?xml version="1.0" encoding="UTF-8" standalone="no"?>
<!DOCTYPE svg PUBLIC "-//W3C//DTD SVG 20010904//EN"
              "http://www.w3.org/TR/2001/REC-SVG-20010904/DTD/svg10.dtd">

<svg xmlns="http://www.w3.org/2000/svg"
     width="21.1685mm" height="21.1685mm"
     viewBox="0 0 100 100">
  <path id="Auswahl"
        fill="none" stroke="currentColor" stroke-width="1"
        d="M 50.22,61.19
           C 50.22,61.19 58.11,53.07 58.11,53.07
             58.11,53.07 73.00,38.18 73.00,38.18
             73.00,38.18 77.28,33.89 77.28,33.89
             78.74,32.43 79.56,31.32 81.79,31.42
             83.71,31.51 84.82,32.85 86.08,34.12
             86.08,34.12 92.62,40.66 92.62,40.66
             92.62,40.66 97.35,45.40 97.35,45.40
             98.33,46.37 99.44,47.37 99.75,48.78
             100.30,51.34 98.75,52.57 97.13,54.20
             97.13,54.20 90.14,61.19 90.14,61.19
             90.14,61.19 61.27,90.07 61.27,90.07
             61.27,90.07 54.51,96.83 54.51,96.83
             53.17,98.17 52.07,99.56 50.00,99.51
             47.92,99.46 46.84,97.96 45.48,96.61
             45.48,96.61 37.59,88.71 37.59,88.71
             37.59,88.71 11.88,62.99 11.88,62.99
             11.88,62.99 4.22,55.32 4.22,55.32
             3.29,54.40 1.23,52.57 0.73,51.49
             -0.46,48.89 1.14,47.12 2.86,45.40
             2.86,45.40 11.66,36.60 11.66,36.60
             11.66,36.60 39.40,8.85 39.40,8.85
             39.40,8.85 45.48,2.76 45.48,2.76
             47.03,1.21 48.10,-0.06 50.45,0.06
             52.75,0.18 54.19,2.10 54.03,4.34
             53.88,6.52 51.89,8.08 50.45,9.53
             50.45,9.53 40.52,19.45 40.52,19.45
             40.52,19.45 28.35,31.64 28.35,31.64
             28.35,31.64 10.08,49.91 10.08,49.91
             10.08,49.91 20.23,59.84 20.23,59.84
             20.23,59.84 39.40,79.01 39.40,79.01
             39.40,79.01 47.06,86.68 47.06,86.68
             47.59,87.21 49.36,89.17 50.00,89.25
             50.70,89.34 51.77,88.06 52.25,87.58
             52.25,87.58 57.89,81.94 57.89,81.94
             57.89,81.94 81.34,58.48 81.34,58.48
             81.34,58.48 87.88,51.94 87.88,51.94
             88.74,51.08 90.12,50.24 89.19,49.01
             89.19,49.01 83.82,43.59 83.82,43.59
             83.37,43.14 82.16,41.78 81.57,41.70
             80.92,41.62 80.18,42.50 79.76,42.92
             79.76,42.92 75.70,46.98 75.70,46.98
             75.70,46.98 58.56,64.12 58.56,64.12
             58.56,64.12 54.51,68.18 54.51,68.18
             53.04,69.72 52.18,71.04 49.77,70.87
             47.52,70.71 46.70,69.19 45.26,67.73
             45.26,67.73 37.14,59.61 37.14,59.61
             37.14,59.61 31.95,54.42 31.95,54.42
             31.01,53.50 29.83,52.73 29.30,51.49
             28.06,48.60 29.87,47.03 31.73,45.17
             31.73,45.17 34.89,42.01 34.89,42.01
             34.89,42.01 57.21,19.68 57.21,19.68
             57.21,19.68 59.69,17.20 59.69,17.20
             61.32,15.57 62.96,13.64 65.56,14.44
             66.35,14.69 67.07,15.21 67.56,15.88
             69.74,18.86 67.33,21.06 65.33,23.06
             65.33,23.06 62.40,26.00 62.40,26.00
             62.40,26.00 45.48,42.92 45.48,42.92
             45.48,42.92 40.97,47.43 40.97,47.43
             40.56,47.84 39.35,48.96 39.21,49.46
             38.99,50.31 41.05,52.02 41.65,52.62
             41.65,52.62 50.22,61.19 50.22,61.19 Z
           M 341.58,31.41
           C 341.58,31.41 347.90,31.41 347.90,31.41
             347.90,31.41 347.90,69.31 347.90,69.31
             347.90,69.31 344.06,69.54 344.06,69.54
             344.06,69.54 342.65,69.31 342.65,69.31
             342.65,69.31 342.17,67.96 342.17,67.96
             342.17,67.96 341.58,64.35 341.58,64.35
             341.58,64.35 341.13,64.35 341.13,64.35
             340.84,65.77 340.55,66.85 339.51,67.94
             337.21,70.34 332.19,70.18 329.40,68.77
             328.12,68.13 326.79,66.90 326.01,65.70
             324.46,63.33 323.77,60.16 323.77,57.35
             323.77,57.35 323.77,54.65 323.77,54.65
             323.77,49.81 325.67,44.05 330.76,42.47
             331.74,42.17 332.66,42.03 333.69,42.01
             336.06,41.99 338.29,42.18 339.83,44.27
             340.76,45.55 340.57,46.43 341.58,47.43
             341.58,47.43 341.58,31.41 341.58,31.41 Z
           M 233.34,67.96
           C 233.34,67.96 233.88,63.67 233.88,63.67
             233.94,63.26 234.00,62.36 234.37,62.12
             234.86,61.81 236.80,62.65 237.40,62.84
             239.73,63.60 242.38,64.15 244.84,64.12
             247.76,64.09 251.97,62.41 250.61,58.71
             249.74,56.33 246.36,55.06 244.16,54.10
             240.16,52.35 235.46,49.63 234.57,44.95
             233.96,41.75 234.54,38.05 236.95,35.72
             240.86,31.94 248.81,32.25 253.41,34.51
             254.91,35.26 256.44,36.14 257.47,37.50
             257.47,37.50 253.18,42.01 253.18,42.01
             250.80,39.84 248.16,38.29 244.84,38.62
             242.42,38.87 240.20,41.05 240.96,43.59
             241.71,46.13 244.70,47.30 246.87,48.39
             251.66,50.78 257.21,53.39 257.24,59.61
             257.24,59.61 257.24,60.74 257.24,60.74
             257.23,61.76 257.15,62.23 256.85,63.22
             254.63,70.61 243.95,70.36 237.85,69.21
             237.85,69.21 233.34,67.96 233.34,67.96 Z
           M 112.69,33.44
           C 112.69,33.44 118.55,33.44 118.55,33.44
             118.55,33.44 118.55,63.67 118.55,63.67
             118.55,63.67 136.82,63.67 136.82,63.67
             136.82,63.67 136.82,69.31 136.82,69.31
             136.82,69.31 112.69,69.31 112.69,69.31
             112.69,69.31 112.69,33.44 112.69,33.44 Z
           M 268.74,34.34
           C 268.74,34.34 275.06,34.34 275.06,34.34
             275.06,34.34 275.06,42.46 275.06,42.46
             275.06,42.46 287.01,42.46 287.01,42.46
             287.01,42.46 287.01,48.10 287.01,48.10
             287.01,48.10 275.06,48.10 275.06,48.10
             275.06,48.10 275.06,58.03 275.06,58.03
             275.06,59.59 275.32,61.10 276.46,62.28
             278.87,64.77 284.34,63.86 287.46,63.45
             287.46,63.45 288.14,69.31 288.14,69.31
             288.14,69.31 283.17,69.76 283.17,69.76
             280.14,69.78 276.75,69.87 273.93,68.56
             270.04,66.75 269.30,63.69 268.93,59.84
             268.93,59.84 268.74,47.88 268.74,47.88
             268.74,47.88 262.20,47.88 262.20,47.88
             262.20,47.88 262.20,42.46 262.20,42.46
             262.20,42.46 268.74,42.46 268.74,42.46
             268.74,42.46 268.74,34.34 268.74,34.34 Z
           M 182.37,42.46
           C 182.37,42.46 182.98,46.98 182.98,46.98
             183.04,47.36 183.06,48.31 183.54,48.42
             184.08,48.53 184.20,47.54 184.27,47.20
             184.67,45.43 185.26,44.01 186.88,43.02
             189.97,41.13 194.94,41.70 197.11,44.72
             198.60,46.79 199.00,50.11 199.06,52.62
             199.06,52.62 192.74,52.62 192.74,52.62
             192.74,49.90 191.96,47.45 188.68,47.67
             184.06,48.00 183.31,54.47 183.27,58.03
             183.27,58.03 183.27,62.32 183.27,62.32
             183.28,62.80 183.26,63.39 183.63,63.76
             184.07,64.20 184.95,64.12 185.53,64.12
             185.53,64.12 189.81,64.12 189.81,64.12
             189.81,64.12 189.81,69.31 189.81,69.31
             189.81,69.31 171.32,69.31 171.32,69.31
             171.32,69.31 171.32,64.12 171.32,64.12
             171.32,64.12 175.38,64.12 175.38,64.12
             175.86,64.11 176.45,64.13 176.82,63.76
             177.26,63.33 177.18,62.44 177.18,61.87
             177.18,61.87 177.18,49.91 177.18,49.91
             177.18,48.28 177.22,47.69 175.38,47.65
             175.38,47.65 172.45,47.65 172.45,47.65
             172.45,47.65 172.45,42.46 172.45,42.46
             172.45,42.46 182.37,42.46 182.37,42.46 Z
           M 205.82,42.24
           C 211.83,42.24 221.05,41.60 224.32,47.88
             225.57,50.28 225.44,52.51 225.44,55.10
             225.44,55.10 225.44,63.67 225.44,63.67
             225.44,63.67 229.14,64.35 229.14,64.35
             229.14,64.35 229.50,65.93 229.50,65.93
             229.50,65.93 229.50,69.32 229.50,69.32
             229.50,69.32 226.57,69.32 226.57,69.32
             226.57,69.32 224.09,69.54 224.09,69.54
             224.09,69.54 220.26,69.54 220.26,69.54
             220.26,69.54 220.03,63.67 220.03,63.67
             218.92,64.37 219.02,65.93 218.14,67.05
             216.22,69.50 213.20,69.79 210.33,69.76
             208.43,69.74 206.16,69.17 204.70,67.91
             201.67,65.32 201.29,59.79 203.69,56.68
             206.73,52.73 211.51,52.83 215.97,52.84
             217.23,52.84 218.14,52.92 219.35,53.29
             219.63,50.79 218.28,49.34 215.97,48.60
             213.70,47.89 207.94,47.88 205.37,47.88
             205.37,47.88 205.82,42.24 205.82,42.24 Z
           M 142.68,42.46
           C 142.68,42.46 148.77,42.46 148.77,42.46
             148.77,42.46 148.77,58.03 148.77,58.03
             148.79,59.81 149.10,61.92 150.59,63.08
             151.44,63.73 152.24,63.89 153.28,63.89
             155.69,63.90 157.31,62.60 158.01,60.29
             158.63,58.22 158.47,55.68 158.47,53.52
             158.47,53.52 158.47,42.46 158.47,42.46
             158.47,42.46 164.78,42.46 164.78,42.46
             164.78,42.46 164.78,63.67 164.78,63.67
             164.78,63.67 168.25,64.35 168.25,64.35
             168.25,64.35 168.61,65.93 168.61,65.93
             168.61,65.93 168.61,69.32 168.61,69.32
             168.61,69.32 165.23,69.32 165.23,69.32
             165.23,69.32 162.75,69.54 162.75,69.54
             162.75,69.54 158.92,69.54 158.92,69.54
             158.92,69.54 158.69,64.12 158.69,64.12
             157.37,64.85 157.69,65.80 156.54,67.28
             154.96,69.32 153.02,69.79 150.57,69.76
             145.24,69.70 142.69,65.70 142.68,60.74
             142.68,60.74 142.68,42.46 142.68,42.46 Z
           M 294.45,42.46
           C 294.45,42.46 300.76,42.46 300.76,42.46
             300.76,42.46 300.76,58.71 300.76,58.71
             300.78,60.26 301.16,61.84 302.37,62.92
             304.77,65.07 308.46,63.69 309.71,60.96
             310.61,58.98 310.46,56.12 310.46,53.97
             310.46,53.97 310.46,42.46 310.46,42.46
             310.46,42.46 316.78,42.46 316.78,42.46
             316.78,42.46 316.78,63.67 316.78,63.67
             316.78,63.67 320.38,64.12 320.38,64.12
             320.38,64.12 320.38,69.31 320.38,69.31
             320.38,69.31 310.91,69.54 310.91,69.54
             310.91,69.54 310.55,64.83 310.55,64.83
             310.55,64.83 309.78,64.12 309.78,64.12
             308.68,71.14 298.93,71.62 295.78,65.93
             294.34,63.31 294.67,60.02 294.66,57.13
             294.66,57.13 294.66,53.52 294.66,53.52
             294.66,53.52 294.45,50.81 294.45,50.81
             294.45,50.81 294.45,42.46 294.45,42.46 Z
           M 353.08,42.46
           C 353.08,42.46 357.82,42.46 357.82,42.46
             358.30,42.47 359.11,42.41 359.51,42.69
             359.93,42.99 360.14,43.79 360.30,44.27
             360.30,44.27 361.43,47.65 361.43,47.65
             361.43,47.65 365.56,59.61 365.56,59.61
             365.99,60.89 366.61,63.45 367.74,64.12
             367.74,64.12 369.38,58.03 369.38,58.03
             369.38,58.03 372.38,47.43 372.38,47.43
             372.38,47.43 373.31,44.04 373.31,44.04
             373.31,44.04 373.96,42.69 373.96,42.69
             373.96,42.69 375.63,42.46 375.63,42.46
             375.63,42.46 380.37,42.46 380.37,42.46
             380.37,42.46 377.44,51.94 377.44,51.94
             377.44,51.94 373.08,65.93 373.08,65.93
             371.63,70.28 370.15,75.03 366.39,77.99
             362.84,80.79 357.89,81.14 353.53,81.49
             353.53,81.49 353.31,75.85 353.31,75.85
             356.58,75.84 360.71,75.37 363.23,73.10
             364.48,71.98 365.12,70.73 365.94,69.31
             365.94,69.31 362.87,69.08 362.87,69.08
             362.87,69.08 361.95,67.28 361.95,67.28
             361.95,67.28 360.31,62.77 360.31,62.77
             360.31,62.77 355.92,50.59 355.92,50.59
             355.92,50.59 353.08,42.46 353.08,42.46 Z
           M 335.27,47.72
           C 330.35,48.64 330.30,52.86 330.31,56.90
             330.31,57.99 330.32,58.54 330.58,59.61
             331.26,62.38 333.43,64.37 336.39,64.05
             337.85,63.90 339.18,63.48 340.14,62.31
             341.68,60.42 341.61,57.19 341.58,54.87
             341.53,50.84 339.85,47.36 335.27,47.72 Z
           M 219.35,58.26
           C 219.35,58.26 217.32,58.04 217.32,58.04
             217.32,58.04 213.72,58.04 213.72,58.04
             211.30,58.06 208.19,58.78 208.48,61.87
             208.69,64.13 210.90,64.64 212.81,64.56
             216.80,64.41 219.34,62.37 219.35,58.26 Z" />
</svg>
